<?xml version="1.0" standalone="no"?>
<!DOCTYPE svg PUBLIC "-//W3C//DTD SVG 20010904//EN"
 "http://www.w3.org/TR/2001/REC-SVG-20010904/DTD/svg10.dtd">
<svg version="1.0" xmlns="http://www.w3.org/2000/svg"
 width="400.000000pt" height="400.000000pt" viewBox="0 0 400.000000 400.000000"
 preserveAspectRatio="xMidYMid meet">
<metadata>
Created by potrace 1.11, written by Peter Selinger 2001-2013
</metadata>
<g transform="translate(0.000000,400.000000) scale(0.100000,-0.100000)"
fill="#000000" stroke="none">
<path d="M1947 3244 c-1 -1 -31 -5 -67 -9 -151 -16 -372 -111 -468 -200 -15
-14 -30 -25 -35 -25 -19 0 6 -20 26 -21 12 0 67 -15 122 -33 l100 -34 56 28
c50 26 126 52 190 66 50 11 202 13 257 3 306 -54 539 -267 618 -564 15 -55 18
-103 17 -228 -1 -144 1 -158 16 -151 116 48 223 77 298 80 241 8 442 -128 533
-361 20 -51 24 -78 24 -175 0 -101 -3 -123 -27 -184 -27 -69 -97 -176 -137
-209 -45 -38 -116 -84 -155 -100 -101 -44 -250 -55 -355 -27 -74 20 -178 80
-233 135 -42 41 -499 705 -516 750 -2 5 -7 12 -10 15 -3 3 -72 104 -152 225
-191 287 -286 383 -469 475 -209 105 -451 133 -672 76 -124 -32 -202 -66 -304
-133 -352 -232 -513 -659 -402 -1063 115 -421 508 -719 943 -713 120 2 198 14
305 50 167 56 268 125 478 329 l154 149 -58 88 c-32 48 -62 87 -67 87 -5 0
-28 -19 -51 -42 -155 -157 -296 -285 -356 -324 -129 -83 -272 -123 -426 -119
-113 4 -151 11 -246 45 -337 123 -543 477 -482 830 34 194 133 357 289 477 69
53 195 115 261 128 242 49 424 18 612 -102 113 -72 162 -136 564 -738 213
-319 402 -596 420 -615 143 -153 347 -243 548 -242 238 0 442 93 590 269 259
308 227 771 -72 1041 -84 76 -201 142 -294 166 -98 25 -125 28 -231 28 l-101
-1 -12 67 c-33 191 -131 382 -265 516 -153 153 -370 260 -570 282 -58 6 -184
12 -188 8z"/>
</g>
</svg>
