<svg height="512pt" viewBox="0 -43 512 512" width="512pt" xmlns="http://www.w3.org/2000/svg" xmlns:xlink="http://www.w3.org/1999/xlink"><linearGradient id="a"><stop offset="0" stop-color="#70cddb"/><stop offset=".437" stop-color="#57b5ec"/><stop offset="1" stop-color="#70cddb"/></linearGradient><linearGradient id="b" gradientTransform="matrix(1.08242 0 0 -1.08242 0 459.829369)" gradientUnits="userSpaceOnUse" x1="59.1268" x2="412.0506" xlink:href="#a" y1="443.2072" y2="90.2834"/><linearGradient id="c" gradientTransform="matrix(1.08242 0 0 -1.08242 0 459.829369)" gradientUnits="userSpaceOnUse" x1="22.0168" x2="374.9486" xlink:href="#a" y1="406.0973" y2="53.1734"/><linearGradient id="d" gradientTransform="matrix(1.08242 0 0 -1.08242 0 459.829369)" gradientUnits="userSpaceOnUse" x1="128.4438" x2="481.3756" xlink:href="#a" y1="512.5243" y2="159.6005"/><linearGradient id="e" gradientTransform="matrix(1.08242 0 0 -1.08242 0 459.829369)" gradientUnits="userSpaceOnUse" x1="70.9521" x2="423.876" xlink:href="#a" y1="455.0326" y2="102.1088"/><path d="m36.027344 344.183594h187.871094v65.417968h-109.304688c-4.714844 0-8.535156 3.820313-8.535156 8.53125 0 4.714844 3.820312 8.535157 8.535156 8.535157h282.8125c4.710938 0 8.53125-3.820313 8.53125-8.535157 0-4.710937-3.820312-8.53125-8.53125-8.53125h-109.304688v-65.417968h187.871094c19.824219.042968 35.941406-15.972656 36.027344-35.796875v-272.589844c-.085938-19.824219-16.203125-35.8398438-36.027344-35.796875h-439.945312c-19.824219-.0429688-35.9414065 15.972656-36.027344 35.796875v272.589844c.0859375 19.824219 16.203125 35.839843 36.027344 35.796875zm235.007812 65.417968h-30.070312v-65.417968h30.070312zm204.9375-82.484374h-439.945312c-10.402344.054687-18.886719-8.324219-18.960938-18.730469v-23.125h477.867188v23.125c-.074219 10.40625-8.558594 18.785156-18.960938 18.730469zm-439.945312-310.050782h439.945312c10.402344-.050781 18.886719 8.328125 18.960938 18.730469v232.398437h-477.867188v-232.398437c.074219-10.402344 8.558594-18.78125 18.960938-18.730469zm0 0" fill="url(#b)"/><path d="m119.464844 180.625h34.136718v17.066406c0 4.714844 3.820313 8.535156 8.53125 8.535156 4.714844 0 8.535157-3.820312 8.535157-8.535156v-17.066406h8.535156c4.710937 0 8.53125-3.820312 8.53125-8.53125 0-4.714844-3.820313-8.535156-8.53125-8.535156h-8.535156v-68.269532c0-4.710937-3.820313-8.53125-8.535157-8.53125-4.710937 0-8.53125 3.820313-8.53125 8.53125v68.269532h-34.136718c-4.710938 0-8.53125-3.820313-8.53125-8.535156v-59.734376c0-4.710937-3.820313-8.53125-8.535156-8.53125-4.710938 0-8.53125 3.820313-8.53125 8.53125v59.734376c0 14.140624 11.460937 25.601562 25.597656 25.601562zm0 0" fill="url(#c)"/><path d="m349.867188 180.625h34.132812v17.066406c0 4.714844 3.820312 8.535156 8.535156 8.535156 4.710938 0 8.53125-3.820312 8.53125-8.535156v-17.066406h8.535156c4.710938 0 8.53125-3.820312 8.53125-8.53125 0-4.714844-3.820312-8.535156-8.53125-8.535156h-8.535156v-68.269532c0-4.710937-3.820312-8.53125-8.53125-8.53125-4.714844 0-8.535156 3.820313-8.535156 8.53125v68.269532h-34.132812c-4.714844 0-8.535157-3.820313-8.535157-8.535156v-59.734376c0-4.710937-3.820312-8.53125-8.535156-8.53125-4.710937 0-8.53125 3.820313-8.53125 8.53125v59.734376c0 14.140624 11.464844 25.601562 25.601563 25.601562zm0 0" fill="url(#d)"/><path d="m230.398438 206.226562h51.199218c14.140625 0 25.601563-11.460937 25.601563-25.601562v-68.265625c0-14.140625-11.460938-25.601563-25.601563-25.601563h-51.199218c-14.136719 0-25.597657 11.460938-25.597657 25.601563v68.265625c0 14.140625 11.460938 25.601562 25.597657 25.601562zm-8.53125-93.867187c0-4.710937 3.820312-8.535156 8.535156-8.535156h51.199218c4.710938 0 8.53125 3.824219 8.53125 8.535156v68.265625c0 4.714844-3.820312 8.535156-8.53125 8.535156h-51.199218c-4.714844 0-8.535156-3.820312-8.535156-8.535156zm0 0" fill="url(#e)"/></svg>