<svg xmlns="http://www.w3.org/2000/svg" width="130" height="110" viewBox="0 0 34.396 29.104">
  <defs/>
  <g stroke-width=".41147" aria-label="SkyBrain" font-family="Poppins" font-size="10.583" font-weight="700">
    <path fill="#57b5ec" d="M25.973 11.465c-.3144 0-.62588.02457-.93269.07329-.36078-3.8512-3.6117-6.8751-7.5555-6.8751l-.8432.8432.8432.8432c3.2546 0 5.9024 2.6478 5.9024 5.9024 0 .10557-.0031.21423-.0088.32295l-.06864 1.2803 1.2027-.4442c.46652-.17229.95788-.25965 1.4605-.25965 2.3247 0 4.216 1.8913 4.216 4.216s-1.8913 4.216-4.216 4.216c-1.4165 0-2.7307-.7057-3.5154-1.8877l-4.9728-7.491h-.8432l.8432 3.0492 3.5678 5.3746c1.098 1.654 2.9374 2.6414 4.9204 2.6414 3.2546 0 5.9024-2.6478 5.9024-5.9024s-2.6478-5.9024-5.9024-5.9024z" data-original="#29d4c0"/>
    <path fill="#70cddb" d="M17.009 11.489c-1.4118-2.1268-3.7769-3.3965-6.3266-3.3965-4.1845 0-7.5888 3.4043-7.5888 7.5888s3.4043 7.5888 7.5888 7.5888c1.9686 0 3.8347-.75056 5.2579-2.1167l2.0896-2.0281-.94877-1.4293-2.3121 2.244c-1.1042 1.0599-2.5556 1.6436-4.0867 1.6436-3.2546 0-5.9024-2.6478-5.9024-5.9024s2.6478-5.9024 5.9024-5.9024c1.2412 0 2.4261.38703 3.4084 1.0822l.01771-.02338.04671.07033c.56039.40811 1.0529.91729 1.4488 1.5136l1.8802 2.8325v-3.0492z" data-original="#6dedde"/>
    <path fill="#70cddc" d="M14.438 7.1986c.88997-.53858 1.9328-.84893 3.0468-.84893v-1.6864c-1.9285 0-3.6909.72347-5.0311 1.9127.6867.13295 1.3517.34273 1.9843.62262z" data-original="#6dedde"/>
  </g>
</svg>
