<svg xmlns="http://www.w3.org/2000/svg" width="270" height="110" viewBox="0 0 71.4375 29.104167">
  <defs/>
  <g fill="#00b5d3" stroke-width=".242861" aria-label="SkyBrain" font-family="Poppins" font-size="10.5833" font-weight="700" style="line-height:1.25;-inkscape-font-specification:'Poppins Bold'">
    <g fill="#3db5f9" stroke-width=".0555825" aria-label="SkyBrain" font-size="9.15458" font-weight="400" style="line-height:1.25;-inkscape-font-specification:Poppins">
      <path d="M8.99112026 16.13811753q0 .5197185-.24946496.96667647-.24946496.44695797-.7587886.7276052-.50932363.28064838-1.25771852.28064838-.72760633 0-1.29929677-.25985981-.5612956-.27025353-.90430964-.72760521-.33262032-.46774653-.38459229-1.06022555h1.0082547q.03117886.31183064.20788671.61326757.18709929.29104209.51971848.4885351.34301404.18709929.8211554.18709929.62366241 0 .9562816-.33262034.33262033-.33262034.33262033-.85233883 0-.44695684-.23907011-.7276052-.2286764-.28064838-.57169045-.43656313-.34301404-.16631074-.93549417-.3534089-.6964218-.2286764-1.1225912-.42616941-.41577455-.20788785-.71721148-.61326758-.29104207-.40538085-.29104207-1.07062039 0-.57169045.27025352-1.00825358.28064723-.43656426.789972-.67563438.51971848-.23907012 1.2161414-.23907012 1.08101408 0 1.7150702.5301122.63405725.5197185.73800117 1.3304802h-1.0186484q-.08315878-.43656425-.44695797-.76918345-.36380373-.33262034-.987465-.33262034-.57169044 0-.91470448.30143693-.34301517.29104209-.34301517.83154914 0 .42616941.21828269.69642294.22867527.25985981.5612956.41577457.33261919.14552104.91470448.33262033.70681663.22867641 1.13298604.43656313.43656425.20788785.73800004.63405726.30143692.41577457.30143692 1.11219751zM13.39167492 18.04028706L11.20885707 15.472878v2.56740906h-.94588788v-7.69183348h.94588788v4.4695786l2.15163445-2.48425484h1.1537746l-2.55701416 2.83766373 2.61938096 2.86884599zM15.79423563 12.33377734l1.85019865 4.49036829 1.7150702-4.49036829h1.0498318l-3.3885644 8.40904611H15.9501515l1.184958-2.79608547-2.4010994-5.61296064zM24.41587915 12.26101682q.7587886 0 1.3512676.3534089.592479.35340889.92509932 1.01864842.34301404.66523954.34301404 1.55915548 0 .89391595-.34301404 1.55915548-.33262033.65484583-.92509933 1.00825359-.592479.3534089-1.3512676.3534089-.83155025 0-1.4136344-.41577458-.57169044-.42616941-.789972-1.1121975v1.45521155h-.94588789v-7.69183348h.94588789v3.44053645q.21828156-.68602923.789972-1.1018038.58208415-.42616941 1.4136344-.42616941zm-.27025352.84194398q-.55090189 0-.99785985.25985982-.44695796.24946496-.69642293.7276052-.24946496.47814138-.24946496 1.1018038t.24946496 1.10180267q.24946497.46774766.69642293.72760634.44695796.25985981.99785985.25985981.88352107 0 1.40323956-.5509019.53011332-.56129674.53011332-1.53836692 0-.9770713-.53011332-1.52797207-.51971849-.56129675-1.40323956-.56129675zM29.2162908 13.4875531q.28064836-.59247901.8211554-.9147045.54050704-.33262034 1.28890193-.33262034v1.02904328h-.29104208q-.80036685 0-1.30969048.41577457-.50932477.40537972-.50932477 1.35126762v3.00397333h-.9458879v-5.70650972h.9458879zM34.60853198 12.26101682q.83155025 0 1.4032407.4157757.58208415.41577457.81076055 1.11219751v-1.45521269h.9458879v5.70650972h-.9458879V16.5850755q-.2286764.69642294-.81076055 1.11219751-.57169045.41577457-1.4032407.41577457-.7587886 0-1.3512676-.3534089-.592479-.35340775-.93549304-1.00825358-.33262032-.66523953-.33262032-1.55915548 0-.89391594.33262032-1.55915548.34301404-.66523953.93549304-1.01864843.592479-.35340889 1.3512676-.35340889zm.27025352.84194398q-.87312623 0-1.40323956.56129675-.51971848.55090076-.51971848 1.52797207 0 .97707018.51971848 1.53836693.53011333.5509019 1.40323956.5509019.56129673 0 .99785985-.25985982.44695796-.25985868.69642292-.72760634.24946496-.47814025.24946496-1.10180267t-.24946496-1.1018038q-.24946496-.47814024-.69642292-.7276052-.43656312-.25985982-.99785985-.25985982zM39.10750784 10.66028422q0-.25985868.17670445-.41577457.17670444-.1663096.46774652-.1663096.29104207 0 .46774652.1663096.17670444.1559159.17670444.41577457 0 .25985982-.17670444.42616942-.17670445.15591589-.46774652.15591589-.29104208 0-.46774652-.1559159-.17670445-.1663096-.17670445-.4261694zm1.11219749 1.67349312v5.70650972h-.9458879v-5.70650972zM44.73427289 12.24022826q.99785871 0 1.61112627.64445098.6132687.63405727.6132687 1.83980385v3.31580397h-.9458879v-3.23264973q0-.8523377-.4365631-1.30969052-.43656426-.45735168-1.18495914-.45735168-.77957716 0-1.24732368.50932364-.46774652.49892994-.46774652 1.4656064v3.02476189h-.94588789v-5.70650972h.9458879v1.35126877q.21828155-.69642294.76918343-1.0706204.5612956-.37419745 1.28890193-.37419745z" style="-inkscape-font-specification:Poppins"/>
    </g>
    <path fill="#57b5ec" d="M64.04265892 13.0001263c-.18556639 0-.3694075.01449894-.55049482.04326455-.2129385-2.27304743-2.13167438-4.05784255-4.45943267-4.05784255l-.49767492.49767496.49767492.49767496c1.92092564 0 3.48372441 1.5627989 3.48372441 3.48372472 0 .0623089-.00175845.12644261-.00517582.1906095l-.04051074.75566966.7098835-.26217517c.27534695-.10169158.5653587-.1532507.86200614-.1532507 1.37208974 0 2.48837458 1.11628493 2.48837458 2.4883748 0 1.37208985-1.11628484 2.48837479-2.48837458 2.48837479-.83606068 0-1.6117368-.41652077-2.07487308-1.11416152l-2.93505441-4.42137752h-.49767492l.49767492 1.79969219 2.10579528 3.17218019c.6480391.97620602 1.73373352 1.55901657 2.9041322 1.55901657 1.92092565 0 3.48372442-1.5627989 3.48372442-3.4837247 0-1.92092582-1.56279877-3.48372472-3.48372441-3.48372472z" data-original="#29d4c0"/>
    <path fill="#70cddb" d="M58.75224185 13.01412756c-.8332737-1.25526896-2.22921867-2.00470109-3.73408808-2.00470109-2.46976154 0-4.47907424 2.00931288-4.47907424 4.47907463 0 2.46976175 2.0093127 4.47907463 4.47907424 4.47907463 1.16193822 0 2.26332599-.44299707 3.10333489-1.24929686l1.23333797-1.1970078-.55998381-.84359224-1.36462462 1.32444578c-.6517219.62557742-1.50835314.9701012-2.41206443.9701012-1.92092564 0-3.48372441-1.5627989-3.48372441-3.4837247 0-1.92092581 1.56279877-3.48372472 3.48372441-3.48372472.73257748 0 1.43194345.2284328 2.01173473.63874922l.01045117-.01380219.02757119.0415061c.33075475.24087468.62146326.541404.85510504.89335973l1.10971553 1.67178972v-1.79969219z" data-original="#6dedde"/>
    <path fill="#70cddc" d="M57.23443289 10.48195737c.52527928-.31788158 1.14080362-.50105915 1.79829854-.50105915V8.9855483c-1.13821571 0-2.17842264.42700512-2.96946033 1.12892588.40530645.07846675.79780606.20228828 1.17116179.3674832z" data-original="#6dedde"/>
  </g>
</svg>
